<?xml version="1.0" encoding="UTF-8"?>
<svg xmlns="http://www.w3.org/2000/svg" id="Layer_1" data-name="Layer 1" viewBox="0 0 24 24">
  <path d="m19.5,5h-3.5v-1.5c0-1.378-1.121-2.5-2.5-2.5h-3c-1.379,0-2.5,1.122-2.5,2.5v1.5h-3.5C2.019,5,0,7.019,0,9.5v9c0,2.481,2.019,4.5,4.5,4.5h15c2.481,0,4.5-2.019,4.5-4.5v-9c0-2.481-2.019-4.5-4.5-4.5Zm-10.5-1.5c0-.827.673-1.5,1.5-1.5h3c.827,0,1.5.673,1.5,1.5v1.5h-6v-1.5Zm14,15c0,1.93-1.57,3.5-3.5,3.5H4.5c-1.93,0-3.5-1.57-3.5-3.5v-9c0-1.93,1.57-3.5,3.5-3.5h15c1.93,0,3.5,1.57,3.5,3.5v9Zm-7-4.5c0,.276-.224.5-.5.5h-3v3c0,.276-.224.5-.5.5s-.5-.224-.5-.5v-3h-3c-.276,0-.5-.224-.5-.5s.224-.5.5-.5h3v-3c0-.276.224-.5.5-.5s.5.224.5.5v3h3c.276,0,.5.224.5.5Z"/>
</svg>
