<?xml version="1.0" encoding="UTF-8"?>
<svg xmlns="http://www.w3.org/2000/svg" id="Layer_1" data-name="Layer 1" viewBox="0 0 24 24">
  <path d="M24.026,3.5c0,.357-.139,.692-.392,.945l-2.409,2.409c-.195,.195-.512,.195-.707,0s-.195-.512,0-.707l2.146-2.146H12c-4.411,0-8,3.589-8,8,0,1.896,.675,3.734,1.9,5.176,.179,.211,.153,.526-.057,.705-.209,.178-.526,.154-.705-.057-1.379-1.623-2.139-3.691-2.139-5.824C3,7.038,7.038,3,12,3h10.666l-2.146-2.146c-.195-.195-.195-.512,0-.707s.512-.195,.707,0l2.409,2.409c.252,.252,.392,.588,.392,.945Zm-5.848,2.641c-.211,.178-.238,.494-.06,.705,1.213,1.439,1.882,3.27,1.882,5.155,0,4.411-3.589,8-8,8H1.334l2.147-2.146c.195-.195,.195-.512,0-.707s-.512-.195-.707,0L.366,19.554c-.522,.521-.522,1.371,0,1.893l2.408,2.407c.195,.195,.512,.195,.707,0s.195-.512,0-.707l-2.147-2.146H12c4.962,0,9-4.037,9-9,0-2.121-.752-4.18-2.117-5.799-.179-.211-.493-.239-.705-.06Zm-10.178,6.359c-.276,0-.5,.224-.5,.5s.224,.5,.5,.5h1c0,1.93,1.57,3.5,3.5,3.5,1.481,0,2.808-.938,3.301-2.333,.092-.261-.045-.547-.305-.639-.261-.092-.546,.045-.638,.305-.352,.997-1.299,1.667-2.357,1.667-1.378,0-2.5-1.121-2.5-2.5h2c.276,0,.5-.224,.5-.5s-.224-.5-.5-.5h-2v-1h2c.276,0,.5-.224,.5-.5s-.224-.5-.5-.5h-2c0-1.378,1.122-2.5,2.5-2.5,1.058,0,2.005,.67,2.357,1.667,.093,.261,.378,.396,.638,.305,.26-.092,.397-.378,.305-.638-.493-1.396-1.82-2.333-3.301-2.333-1.93,0-3.5,1.57-3.5,3.5h-1c-.276,0-.5,.224-.5,.5s.224,.5,.5,.5h1v1h-1Z"/>
</svg>
