<?xml version="1.0" encoding="UTF-8"?>
<svg xmlns="http://www.w3.org/2000/svg" id="Layer_1" data-name="Layer 1" viewBox="0 0 24 24">
  <path d="m20.004,3.059C17.428.753,14.097-.306,10.636.075,5.125.684.684,5.125.075,10.636c-.67,6.074,3.154,11.78,8.896,13.273.236.061.474.091.711.091.613,0,1.214-.203,1.716-.591.7-.541,1.102-1.358,1.102-2.241v-3.193c2.523-.252,4.5-2.387,4.5-4.975v-2h.5c.276,0,.5-.224.5-.5s-.224-.5-.5-.5h-2.5v-3.5c0-.276-.224-.5-.5-.5s-.5.224-.5.5v3.5h-4v-3.5c0-.276-.224-.5-.5-.5s-.5.224-.5.5v3.5h-2.5c-.276,0-.5.224-.5.5s.224.5.5.5h.5v2c0,2.588,1.977,4.723,4.5,4.975v3.193c0,.571-.26,1.1-.713,1.45-.449.348-1.021.467-1.563.322C3.958,21.572.453,16.329,1.069,10.745,1.627,5.696,5.696,1.627,10.745,1.069c3.179-.35,6.23.62,8.591,2.734,2.329,2.086,3.664,5.073,3.664,8.196,0,4.808-3.075,9.021-7.652,10.481-.263.084-.408.365-.324.629.084.262.363.406.629.324,4.993-1.595,8.348-6.189,8.348-11.435,0-3.407-1.457-6.666-3.996-8.941Zm-12.004,9.941v-2h8v2c0,2.206-1.794,4-4,4s-4-1.794-4-4Z"/>
</svg>
